<?xml version="1.0" standalone="no"?>
<!DOCTYPE svg PUBLIC "-//W3C//DTD SVG 20010904//EN"
 "http://www.w3.org/TR/2001/REC-SVG-20010904/DTD/svg10.dtd">
<svg version="1.0" xmlns="http://www.w3.org/2000/svg"
 width="1280.000000pt" height="500.000000pt" viewBox="0 0 1280.000000 500.000000"
 preserveAspectRatio="xMidYMid meet">

<g transform="translate(0.000000,500.000000) scale(0.100000,-0.100000)"
fill="#000000" stroke="none">
<path d="M0 2500 l0 -2500 6400 0 6400 0 0 2500 0 2500 -6400 0 -6400 0 0
-2500z m7190 1940 c213 -43 426 -139 680 -306 25 -16 52 -34 60 -41 297 -230
460 -457 460 -642 0 -80 -17 -108 -83 -144 -38 -20 -56 -22 -182 -22 -100 1
-150 5 -173 16 -33 14 -31 14 49 10 102 -4 148 9 188 54 36 41 39 77 14 145
-83 225 -462 536 -834 683 -104 42 -257 77 -332 77 -70 0 -138 -24 -164 -59
-34 -46 -20 -145 32 -223 15 -22 24 -42 22 -44 -9 -10 -76 82 -111 152 -61
122 -68 200 -25 270 53 87 201 114 399 74z m55 -272 c364 -78 849 -461 858
-677 3 -88 -46 -122 -175 -120 -103 1 -164 16 -72 18 47 1 68 6 89 23 24 19
27 26 23 69 -6 62 -47 125 -140 217 -273 268 -740 448 -806 309 -14 -28 -11
-44 24 -132 13 -33 -41 35 -67 84 -12 24 -25 67 -27 96 -4 46 -1 56 24 84 44
48 133 58 269 29z m67 -207 c246 -63 551 -308 551 -443 0 -23 -7 -46 -16 -56
-20 -19 -137 -31 -137 -13 0 6 10 11 23 11 29 0 49 33 41 68 -26 105 -284 301
-459 348 -122 33 -192 3 -155 -67 15 -28 -6 -25 -25 4 -61 93 -31 164 71 166
17 1 65 -8 106 -18z m160 -256 c92 -61 131 -128 130 -228 -1 -41 -6 -73 -11
-75 -6 -2 -11 -11 -11 -19 0 -18 -60 -102 -73 -103 -5 0 -23 -10 -39 -22 -47
-33 -163 -38 -220 -8 -50 26 -111 87 -134 136 -26 55 -21 151 11 213 28 52 92
108 150 129 47 18 153 5 197 -23z m-2057 15 c60 -13 101 -66 110 -139 8 -68
-7 -136 -38 -170 -45 -49 -63 -51 -420 -51 -274 0 -342 -3 -378 -15 -51 -18
-69 -38 -69 -75 0 -61 63 -80 262 -80 178 0 280 -12 373 -45 169 -60 256 -181
272 -375 14 -183 -47 -327 -171 -407 -116 -74 -246 -93 -656 -93 -305 0 -364
7 -402 49 -74 82 -59 238 27 291 37 23 44 24 394 29 319 5 360 8 393 25 50 24
62 75 28 111 -32 34 -98 45 -273 45 -188 0 -304 18 -393 60 -133 64 -198 163
-217 329 -15 144 18 282 87 363 70 79 181 132 314 148 95 11 709 11 757 0z
m1463 -15 c95 -58 98 -259 3 -317 -35 -23 -43 -23 -396 -28 -390 -5 -407 -8
-432 -61 -18 -37 -6 -65 35 -86 30 -14 75 -19 247 -25 125 -4 237 -13 278 -22
141 -32 262 -127 309 -244 20 -50 23 -75 23 -197 0 -138 0 -141 -33 -210 -55
-116 -142 -180 -292 -217 -78 -20 -114 -22 -455 -22 -353 -1 -372 0 -404 19
-56 33 -75 67 -79 145 -3 56 0 78 17 114 38 77 45 79 431 84 184 2 352 8 373
13 90 23 105 106 27 150 -18 10 -88 15 -250 20 -303 9 -381 31 -491 139 -76
75 -101 140 -107 281 -9 214 50 338 200 417 119 64 172 70 608 68 335 -1 357
-2 388 -21z m477 -570 l130 -2 3 -265 2 -266 -22 -6 c-30 -8 -246 -8 -275 0
l-23 6 0 275 0 275 28 -7 c15 -5 86 -9 157 -10z m129 -633 c-2 -45 -6 -56 -42
-93 -37 -39 -45 -43 -99 -47 -50 -3 -63 0 -100 25 -24 15 -43 33 -43 40 0 7
-4 13 -9 13 -11 0 -26 83 -18 102 3 10 43 13 158 12 l154 -1 -1 -51z m-4244
-716 l0 -225 27 -3 c25 -3 29 -9 37 -51 4 -26 5 -51 2 -54 -13 -13 -126 -15
-155 -4 -51 22 -55 45 -59 300 -2 128 -1 239 2 247 4 10 25 14 76 14 l70 0 0
-224z m242 207 c25 -23 23 -68 -4 -87 -31 -22 -84 -20 -108 4 -24 24 -25 48
-4 78 19 27 88 31 116 5z m483 -268 l0 -280 -62 -3 c-52 -2 -63 0 -63 13 0 19
-9 19 -34 0 -31 -23 -114 -19 -152 7 -73 50 -105 180 -70 285 28 85 84 123
182 123 l54 0 0 70 0 71 73 -3 72 -3 0 -280z m1995 145 c0 -77 2 -140 4 -140
23 0 43 23 66 75 l28 61 63 -3 c35 -2 69 -5 75 -6 14 -2 -47 -137 -70 -156
-15 -13 -15 -16 5 -37 24 -26 101 -203 93 -215 -2 -4 -36 -7 -75 -6 l-71 2
-26 60 c-36 82 -44 93 -67 97 -18 3 -20 -4 -25 -77 l-5 -80 -67 -3 -68 -3 0
286 0 285 70 0 70 0 0 -140z m622 123 c22 -20 24 -66 2 -87 -9 -10 -33 -16
-59 -16 -36 0 -48 5 -60 24 -18 28 -11 71 14 86 26 15 83 12 103 -7z m2020
-80 l3 -48 40 -1 40 0 0 -50 0 -49 -42 -3 -41 -3 -4 -62 c-2 -34 -2 -79 0
-100 3 -38 3 -38 44 -35 40 3 41 3 54 -42 8 -25 14 -46 14 -46 1 -10 -92 -34
-130 -34 -106 0 -123 25 -130 190 -5 120 -6 125 -27 128 -20 3 -23 9 -23 52 0
43 3 49 23 52 19 3 22 10 25 51 l3 47 74 0 74 0 3 -47z m1900 0 l3 -48 40 0
40 0 3 -52 3 -52 -43 -3 -43 -3 0 -95 0 -95 42 2 c45 2 53 -9 53 -73 0 -40
-30 -54 -115 -54 -53 0 -69 4 -92 24 -28 24 -28 27 -33 158 l-5 133 -25 0
c-24 0 -25 3 -25 55 0 52 1 55 25 55 23 0 25 4 28 48 l3 47 69 0 69 0 3 -47z
m-7988 -59 c26 -9 50 -22 52 -29 3 -7 -4 -31 -15 -54 l-21 -40 -42 19 c-51 23
-118 27 -118 6 0 -18 19 -33 55 -42 17 -3 53 -17 81 -31 62 -28 79 -60 71
-131 -4 -37 -12 -52 -38 -74 -40 -34 -79 -42 -172 -36 -65 5 -147 32 -147 48
0 16 42 90 51 90 5 0 21 -7 34 -16 33 -22 130 -25 130 -4 0 17 -32 34 -95 50
-25 7 -58 26 -77 45 -28 28 -33 40 -33 82 0 29 7 58 16 72 40 56 170 78 268
45z m416 -4 c51 -26 86 -74 100 -135 35 -152 -52 -275 -193 -275 -133 0 -208
77 -207 212 1 69 18 128 47 160 50 57 178 76 253 38z m568 -199 l-3 -206 -70
0 -70 0 0 205 0 205 45 5 c25 3 57 3 73 1 l27 -3 -2 -207z m982 204 c69 -24
73 -30 48 -78 -11 -23 -21 -43 -23 -45 -1 -1 -17 5 -35 14 -43 22 -115 30
-125 14 -11 -17 13 -34 75 -53 102 -31 140 -67 140 -134 0 -83 -70 -133 -186
-133 -69 0 -158 22 -170 42 -7 11 24 98 35 98 4 0 26 -9 49 -20 47 -23 104
-26 121 -6 15 18 1 27 -69 49 -80 25 -116 50 -130 92 -32 98 40 175 166 175
34 0 81 -7 104 -15z m270 -4 c6 -11 12 -11 31 3 27 18 100 21 132 5 131 -67
144 -300 23 -390 -24 -18 -47 -24 -103 -27 l-73 -4 0 -74 0 -74 -70 0 -70 0 0
283 c0 156 2 286 4 288 11 11 118 2 126 -10z m583 5 c18 -7 43 -26 57 -40 24
-27 25 -32 28 -202 l3 -174 -61 0 c-45 0 -62 4 -67 15 -5 14 -8 14 -29 0 -30
-19 -116 -20 -154 0 -63 32 -80 129 -34 184 35 42 56 52 131 61 73 9 82 14 66
38 -11 18 -61 21 -118 8 -28 -6 -31 -4 -48 33 -10 23 -16 45 -12 51 20 33 181
51 238 26z m293 -8 c5 -16 7 -16 33 3 20 15 39 19 72 17 l44 -3 -3 -40 c-4
-73 -11 -88 -34 -82 -11 3 -38 -1 -59 -10 l-38 -15 -3 -136 -3 -137 -70 0 -70
0 -3 200 c-1 110 -1 204 2 210 2 5 31 10 65 10 49 0 62 -3 67 -17z m920 12
l54 0 -2 -207 -3 -208 -64 -3 c-35 -2 -67 1 -70 6 -3 6 -5 103 -3 217 2 181 5
206 18 201 9 -3 40 -6 70 -6z m274 -9 c5 -8 15 -7 36 4 34 17 108 20 151 5 18
-7 38 -26 51 -48 19 -34 21 -55 22 -193 1 -84 1 -160 0 -167 0 -10 -18 -12
-67 -10 l-68 3 -5 143 c-4 112 -8 145 -20 152 -22 14 -43 12 -68 -6 -23 -16
-23 -20 -21 -153 l2 -136 -69 0 -69 0 -3 200 c-1 110 -1 204 2 210 5 14 117
10 126 -4z m746 7 c2 -2 -34 -96 -79 -209 l-82 -204 -61 -3 -61 -3 -38 93
c-21 51 -50 122 -66 158 -15 36 -37 89 -48 118 l-21 52 79 0 c74 0 80 -2 86
-22 44 -145 85 -234 85 -183 0 15 55 188 64 203 4 7 134 7 142 0z m316 -13
c47 -32 88 -113 88 -176 l0 -47 -113 3 c-132 5 -147 0 -117 -38 17 -22 30 -27
63 -27 23 1 53 7 67 15 37 21 45 19 63 -20 26 -54 22 -70 -20 -91 -29 -14 -60
-19 -128 -19 -83 0 -93 2 -127 28 -55 42 -73 88 -73 182 1 144 66 214 200 215
48 0 68 -5 97 -25z m436 2 c17 -10 32 -24 32 -33 0 -12 -24 -69 -35 -81 -1 -2
-20 6 -43 17 -45 22 -107 26 -118 9 -10 -17 16 -33 92 -57 82 -26 113 -54 121
-110 13 -94 -57 -152 -183 -152 -69 0 -158 22 -170 42 -7 11 24 98 35 98 4 0
23 -7 41 -17 49 -24 125 -30 133 -9 6 16 -36 46 -65 46 -7 0 -37 11 -66 25
-41 19 -56 32 -68 62 -29 68 -6 125 66 164 45 25 177 22 228 -4z m553 2 c3 -6
18 -3 35 6 44 23 125 20 158 -6 26 -21 28 -21 47 -3 30 27 142 32 185 9 56
-30 64 -62 64 -249 l0 -167 -67 3 -68 3 -5 140 c-3 77 -9 146 -13 153 -10 15
-41 16 -68 2 -17 -10 -19 -23 -19 -156 l0 -145 -67 3 -68 3 -5 140 c-3 77 -9
146 -13 153 -11 16 -47 15 -69 -2 -16 -11 -18 -32 -18 -155 l0 -142 -67 3 -68
3 -3 200 c-1 110 -1 204 1 210 5 12 120 7 128 -6z m828 6 c64 -32 106 -115 99
-193 l-3 -37 -95 2 c-52 2 -108 -1 -125 -5 l-30 -8 27 -27 c31 -31 86 -36 128
-12 14 8 31 14 37 15 14 0 43 -62 43 -90 0 -31 -76 -60 -157 -60 -135 0 -202
65 -211 204 -3 63 -1 77 25 125 37 71 90 101 175 101 32 0 72 -7 87 -15z m259
6 c26 -1 41 -5 37 -11 -9 -14 5 -12 35 5 30 17 120 19 155 3 14 -6 35 -28 48
-47 20 -33 22 -48 22 -201 l0 -165 -70 0 -70 0 -5 140 c-3 77 -9 146 -13 153
-10 15 -41 16 -68 2 -17 -10 -19 -23 -19 -143 0 -73 -4 -138 -9 -145 -5 -9
-27 -12 -72 -10 l-64 3 -3 200 c-1 110 -1 204 2 211 2 6 15 10 28 8 12 -1 42
-3 66 -3z m-3220 -653 c-3 -7 -18 -15 -34 -18 -17 -3 -33 -15 -41 -30 -12 -23
-11 -25 15 -30 37 -7 34 -24 -5 -28 -31 -3 -32 -4 -54 -98 -18 -73 -27 -94
-40 -94 -11 0 -16 6 -13 18 2 9 11 44 19 77 19 75 19 95 -1 95 -23 0 -11 24
13 28 13 2 24 13 27 28 10 39 42 64 82 64 24 0 34 -4 32 -12z m1324 2 c0 -3
-14 -70 -33 -149 -30 -129 -47 -167 -65 -148 -3 3 11 73 32 156 27 111 41 151
51 149 8 -2 14 -5 15 -8z m-1824 -29 c-4 -20 -48 -28 -48 -9 0 20 20 37 37 31
8 -3 13 -13 11 -22z m552 -2 c0 -12 -7 -19 -20 -19 -22 0 -29 35 -7 43 18 6
27 -2 27 -24z m968 8 c4 -21 -25 -34 -40 -19 -8 8 -8 16 2 27 16 19 34 15 38
-8z m1237 -3 c0 -12 -8 -20 -22 -22 -25 -4 -31 16 -11 36 17 17 33 10 33 -14z
m-3171 -28 c-5 -21 -2 -25 20 -28 38 -4 37 -22 -1 -26 -26 -3 -34 -9 -39 -30
-3 -15 -10 -43 -15 -62 -14 -55 -11 -69 16 -76 14 -4 24 -11 22 -18 -6 -17
-50 -18 -71 -1 -20 15 -20 16 1 96 17 66 18 82 7 86 -21 8 -17 33 6 33 13 0
20 7 20 18 0 22 8 32 27 32 9 0 11 -8 7 -24z m-2344 -116 c3 -47 8 -80 12 -75
3 6 21 37 38 70 38 69 58 95 75 95 14 0 25 -52 25 -117 0 -24 3 -43 8 -43 4 0
26 36 50 80 24 44 49 80 57 80 8 0 15 -3 15 -6 0 -11 -113 -209 -123 -216 -25
-16 -37 5 -38 66 -1 106 -9 109 -60 20 -32 -57 -50 -80 -66 -82 -21 -3 -23 1
-23 40 0 24 -3 74 -7 112 -6 63 -5 68 13 64 16 -3 20 -15 24 -88z m438 74 c17
-12 22 -25 22 -60 l0 -44 -85 0 c-84 0 -85 0 -85 -25 0 -48 77 -69 110 -30 6
8 18 11 26 8 22 -8 -9 -39 -52 -53 -78 -26 -133 23 -115 101 22 96 114 149
179 103z m323 -5 c15 -15 19 -28 15 -48 -3 -14 -12 -53 -19 -86 -12 -53 -16
-60 -37 -61 -14 0 -42 -4 -63 -8 -91 -20 -121 75 -37 119 16 8 47 15 70 15 44
0 61 19 40 45 -16 20 -50 19 -79 -1 -35 -25 -49 -2 -15 25 36 28 97 28 125 0z
m101 10 c3 -9 9 -9 25 0 29 15 53 14 53 -3 0 -7 -13 -16 -30 -19 -38 -8 -61
-45 -79 -126 -11 -48 -18 -61 -32 -61 -10 0 -17 6 -15 13 3 6 14 53 27 102 12
50 24 93 26 98 6 11 21 9 25 -4z m235 3 c18 -12 34 -61 27 -88 -6 -23 -10 -24
-84 -24 -44 0 -81 -4 -84 -9 -12 -19 13 -59 40 -65 20 -5 35 -1 57 14 21 16
32 19 40 11 12 -12 -10 -34 -51 -51 -62 -26 -122 8 -122 68 0 48 36 119 68
137 29 15 90 19 109 7z m326 -10 c17 -18 21 -39 19 -79 -2 -22 -6 -23 -81 -23
-44 0 -82 -4 -85 -9 -12 -19 13 -59 40 -65 20 -5 35 -1 57 14 38 29 62 11 26
-19 -44 -37 -110 -39 -144 -5 -37 37 -4 151 53 187 36 22 95 22 115 -1z m108
-23 l21 -42 42 42 c38 38 66 52 66 34 0 -4 -21 -29 -47 -55 l-47 -48 22 -52
c31 -74 5 -92 -32 -20 -9 17 -20 32 -24 32 -5 0 -23 -16 -42 -35 -19 -19 -43
-35 -54 -35 -16 0 -10 11 33 54 l53 53 -21 41 c-12 23 -21 48 -21 57 0 30 30
14 51 -26z m181 21 c-2 -9 5 -8 22 4 58 38 136 4 136 -58 -1 -44 -34 -111 -66
-132 -28 -19 -87 -24 -115 -10 -14 6 -19 -2 -29 -43 -7 -28 -16 -54 -22 -57
-26 -16 -23 23 13 161 21 83 38 152 39 153 0 2 6 2 13 -1 6 -2 11 -10 9 -17z
m360 3 c12 -11 18 -30 18 -59 l0 -43 -82 -3 c-77 -3 -83 -5 -86 -25 -7 -46 76
-67 109 -27 15 18 29 18 29 -1 0 -19 -57 -55 -88 -55 -26 0 -63 17 -74 34 -27
40 10 154 60 180 36 20 91 20 114 -1z m100 6 c3 -9 9 -9 25 0 30 15 53 14 53
-4 0 -8 -9 -15 -20 -15 -28 0 -67 -44 -75 -83 -16 -77 -29 -107 -45 -107 -16
0 -15 8 6 98 13 53 26 103 29 110 6 15 22 16 27 1z m372 -5 c22 -21 20 -34 -4
-34 -11 0 -20 5 -20 10 0 15 -53 12 -75 -4 -26 -18 -9 -39 45 -55 98 -29 30
-146 -75 -127 -40 8 -66 43 -44 57 9 6 18 3 27 -8 15 -21 80 -23 93 -2 16 24
5 43 -31 54 -51 15 -60 23 -60 54 0 27 20 53 50 64 30 11 79 7 94 -9z m189 10
c3 -3 2 -18 -3 -32 -5 -15 -16 -62 -26 -104 -13 -61 -21 -78 -34 -78 -16 0
-17 5 -9 38 5 20 14 60 20 87 17 82 32 109 52 89z m89 -5 c3 -9 9 -9 25 0 12
6 37 11 57 11 50 0 66 -26 54 -90 -13 -74 -33 -125 -50 -128 -14 -3 -13 7 3
75 10 43 16 86 13 96 -11 33 -93 14 -112 -27 -5 -12 -15 -48 -23 -80 -11 -52
-30 -78 -45 -63 -5 5 6 59 37 180 9 35 33 50 41 26z m464 -21 c-4 -18 -16 -68
-27 -110 -16 -60 -25 -78 -39 -78 -17 0 -16 7 7 98 32 127 30 122 49 122 13 0
15 -6 10 -32z m82 20 c9 -9 15 -9 24 0 15 15 72 16 99 2 24 -13 25 -53 2 -142
-13 -51 -22 -68 -35 -68 -10 0 -16 6 -13 13 24 75 35 150 24 163 -26 32 -99 5
-113 -43 -3 -10 -12 -44 -21 -75 -12 -42 -21 -58 -34 -58 -15 0 -14 10 11 108
15 59 27 108 28 110 1 6 17 1 28 -10z m343 2 c21 -12 25 -60 10 -120 -5 -19
-12 -47 -15 -62 -5 -22 -11 -27 -39 -26 -17 0 -45 -3 -60 -7 -67 -18 -101 46
-54 100 17 21 34 27 80 32 61 6 79 21 57 48 -16 20 -50 19 -79 -1 -35 -25 -49
-2 -15 25 29 23 83 28 115 11z m111 -1 c3 -9 9 -9 25 0 24 12 82 15 99 3 21
-14 23 -44 9 -110 -18 -86 -24 -102 -41 -102 -18 0 -18 8 2 83 20 79 13 107
-27 107 -48 0 -84 -46 -99 -125 -10 -54 -16 -65 -32 -65 -12 0 -18 5 -15 13 2
6 15 56 27 110 14 61 27 97 35 97 8 0 15 -5 17 -11z m352 -11 c14 -20 14 -23
0 -31 -11 -6 -19 -3 -28 9 -10 13 -21 15 -48 10 -42 -8 -68 -41 -75 -96 -5
-32 -2 -40 20 -54 23 -16 27 -16 61 0 44 21 58 11 28 -19 -32 -32 -106 -31
-133 2 -24 29 -24 64 1 118 34 76 139 112 174 61z m86 16 c0 -13 -41 -171 -50
-191 -5 -13 -16 -23 -24 -23 -11 0 -9 18 10 98 14 53 27 103 29 110 4 12 35
18 35 6z m194 -7 c23 -17 23 -38 1 -130 -17 -71 -20 -78 -39 -73 -12 3 -35 0
-52 -6 -36 -13 -82 -4 -91 17 -3 9 -2 30 1 49 8 42 52 66 120 66 38 0 46 3 46
18 0 41 -57 57 -91 26 -17 -16 -39 -12 -39 6 0 31 110 52 144 27z m367 3 c10
-6 19 -17 19 -25 0 -17 -26 -20 -35 -5 -9 15 -61 12 -75 -5 -19 -23 -6 -42 36
-51 51 -13 68 -39 48 -80 -25 -52 -91 -70 -139 -38 -26 17 -32 38 -15 49 5 3
18 -3 30 -15 25 -25 54 -26 80 0 27 27 18 42 -38 60 -38 12 -47 20 -49 40 -6
58 79 101 138 70z m211 -7 c12 -11 18 -30 18 -59 l0 -43 -82 -3 c-77 -3 -83
-5 -86 -25 -7 -46 76 -67 109 -27 12 14 29 10 29 -7 0 -14 -62 -49 -87 -49
-77 0 -106 65 -68 156 26 63 124 96 167 57z m100 6 c3 -9 9 -9 24 -1 11 6 40
10 64 9 l45 -2 10 -77 c6 -42 12 -79 15 -82 3 -2 30 33 60 80 30 46 61 84 68
84 17 0 15 -22 -4 -45 -8 -11 -37 -55 -64 -97 -34 -54 -56 -78 -69 -78 -23 0
-26 9 -42 117 -11 82 -11 83 -38 77 -53 -13 -69 -32 -91 -106 -23 -76 -32 -93
-48 -87 -7 3 25 159 43 207 6 15 22 16 27 1z m360 1 c1 -3 -9 -51 -22 -107
-20 -87 -26 -103 -43 -103 -11 0 -17 5 -14 13 2 7 12 48 22 92 20 89 31 118
46 113 6 -2 11 -6 11 -8z m204 -11 c16 -17 16 -22 4 -29 -19 -12 -30 -12 -30
0 0 16 -46 23 -70 10 -28 -15 -60 -69 -60 -102 0 -19 9 -33 26 -45 25 -16 28
-16 56 0 36 21 48 21 48 2 0 -17 -50 -45 -80 -45 -34 0 -77 28 -84 54 -11 43
24 127 63 153 44 30 101 31 127 2z m199 -3 c9 -14 15 -39 13 -58 l-3 -33 -82
-3 c-80 -3 -83 -4 -83 -27 0 -15 10 -31 26 -42 26 -16 28 -16 67 5 22 12 43
20 46 17 12 -12 -18 -41 -56 -54 -106 -38 -159 75 -82 174 26 32 52 44 101 44
29 1 41 -4 53 -23z m186 14 c10 -6 19 -17 19 -25 0 -17 -26 -20 -35 -5 -8 12
-55 13 -73 1 -25 -16 -8 -43 38 -60 56 -20 65 -53 26 -97 -20 -24 -32 -29 -70
-29 -52 0 -92 29 -76 55 8 12 13 11 34 -9 22 -21 30 -23 58 -15 26 8 33 15 33
34 0 20 -8 27 -45 40 -49 17 -61 41 -40 80 19 36 89 52 131 30z m-6336 -180
c7 -12 -12 -40 -27 -40 -16 0 -21 32 -7 41 18 12 26 11 34 -1z m83 -13 c4 -21
-25 -34 -40 -19 -8 8 -8 16 2 27 16 19 34 15 38 -8z m89 7 c7 -20 -11 -38 -31
-31 -9 4 -12 13 -9 26 6 25 31 28 40 5z"/>
<path d="M3743 1731 c-31 -26 -39 -87 -16 -131 15 -30 23 -35 53 -35 l35 0 0
90 c0 89 0 90 -25 92 -14 2 -35 -6 -47 -16z"/>
<path d="M2800 1732 c-52 -42 -29 -172 31 -172 40 0 59 33 59 102 0 47 -4 59
-22 72 -29 20 -41 20 -68 -2z"/>
<path d="M4777 1732 c-13 -14 -17 -38 -17 -95 l0 -77 34 0 c50 0 76 37 76 106
0 43 -4 56 -22 68 -29 21 -51 20 -71 -2z"/>
<path d="M5232 1623 c-47 -9 -49 -83 -2 -83 39 0 50 11 50 51 0 40 -1 41 -48
32z"/>
<path d="M7746 1754 c-31 -31 -20 -44 39 -44 30 0 55 4 55 8 0 16 -41 52 -60
52 -10 0 -26 -7 -34 -16z"/>
<path d="M9576 1754 c-31 -30 -20 -44 34 -44 52 0 58 7 40 41 -13 23 -53 25
-74 3z"/>
<path d="M3825 1088 c-21 -12 -35 -28 -35 -40 0 -5 27 -8 60 -8 33 0 60 2 60
4 0 3 -4 16 -10 30 -10 28 -40 34 -75 14z"/>
<path d="M4106 994 c-37 -37 -5 -75 47 -55 23 9 57 46 57 63 0 15 -88 8 -104
-8z"/>
<path d="M4476 1079 c-14 -11 -26 -25 -26 -30 0 -5 27 -9 60 -9 51 0 60 3 60
18 0 44 -50 55 -94 21z"/>
<path d="M4796 1079 c-14 -11 -26 -25 -26 -30 0 -5 27 -9 60 -9 51 0 60 3 60
18 0 44 -50 55 -94 21z"/>
<path d="M5223 1088 c-21 -10 -53 -72 -53 -102 0 -8 8 -24 18 -36 17 -21 22
-22 53 -11 41 13 69 55 69 103 0 54 -33 72 -87 46z"/>
<path d="M5446 1079 c-14 -11 -26 -25 -26 -30 0 -5 27 -9 60 -9 51 0 60 3 60
18 0 44 -50 55 -94 21z"/>
<path d="M7074 1002 c-6 -4 -16 -17 -22 -28 -16 -30 7 -48 47 -39 30 6 53 27
64 58 5 14 0 17 -36 17 -23 0 -47 -4 -53 -8z"/>
<path d="M7808 999 c-25 -14 -23 -56 2 -64 35 -11 90 29 90 66 0 12 -71 11
-92 -2z"/>
<path d="M8420 1093 c-16 -7 -39 -33 -40 -45 0 -5 24 -8 54 -8 61 0 68 5 55
38 -8 22 -35 28 -69 15z"/>
<path d="M9262 1080 c-34 -32 -27 -40 38 -40 33 0 60 2 60 5 0 2 -5 16 -12 30
-14 31 -55 34 -86 5z"/>
</g>
</svg>
